<?xml version="1.0" encoding="utf-8"?>
<svg version="1.1" xmlns="http://www.w3.org/2000/svg" xmlns:xlink="http://www.w3.org/1999/xlink" height="36.30000000000001" width="36.22508749999997">
  <defs>
    <path id="path-0" opacity="1" d="M31.199999999999932,1.3999999999999773 L1.3999999999999773,11.299999999999955 L1.3999999999999773,1.3999999999999773 L31.199999999999932,1.3999999999999773ZM0.7000000000000455,0 C0.2999999999999545,0 0,0.30000000000001137 0,0.6999999999999886 L0,12.300000000000011 C0,12.5 0.10000000000002274,12.699999999999989 0.2999999999999545,12.899999999999977 C0.39999999999997726,13 0.6000000000000227,13 0.7000000000000455,13 L35.700000000000045,1.3999999999999773 C36.10000000000002,1.3000000000000114 36.299999999999955,0.8999999999999773 36.200000000000045,0.6000000000000227 C36.10000000000002,0.30000000000001137 35.799999999999955,0 35.5,0 L0.7000000000000455,0Z"/>
    <path id="path-1" opacity="1" d="M34.799999999999955,2 L34.799999999999955,34.89999999999998 L1.3999999999999773,34.89999999999998 L1.3999999999999773,24.399999999999977 L34.799999999999955,2 L34.799999999999955,2ZM35.5,0 C35.39999999999998,0 35.200000000000045,0 35.10000000000002,0.10000000000002274 L0.2999999999999545,23.5 C0.10000000000002274,23.600000000000023 0,23.899999999999977 0,24.100000000000023 L0,35.60000000000002 C0,36 0.2999999999999545,36.30000000000001 0.7000000000000455,36.30000000000001 L35.60000000000002,36.30000000000001 C35.89999999999998,36.30000000000001 36.299999999999955,35.89999999999998 36.200000000000045,35.60000000000002 L36.200000000000045,0.6999999999999886 C36.200000000000045,0.30000000000001137 35.89999999999998,0 35.5,0 L35.5,0Z"/>
  </defs>
  <g opacity="1">
    <g>
      <use xlink:href="#path-0" fill="rgb(218,48,53)" fill-opacity="1"/>
    </g>
    <g>
      <use xlink:href="#path-1" fill="rgb(218,48,53)" fill-opacity="1"/>
    </g>
  </g>
</svg>