<?xml version="1.0" encoding="UTF-8"?>
<!DOCTYPE svg PUBLIC "-//W3C//DTD SVG 1.1//EN" "http://www.w3.org/Graphics/SVG/1.1/DTD/svg11.dtd">
<!-- Creator: CorelDRAW X8 -->
<svg xmlns="http://www.w3.org/2000/svg" xml:space="preserve" width="64.1417mm" height="48.6625mm" version="1.1" style="shape-rendering:geometricPrecision; text-rendering:geometricPrecision; image-rendering:optimizeQuality; fill-rule:evenodd; clip-rule:evenodd"
viewBox="0 0 391 297"
 xmlns:xlink="http://www.w3.org/1999/xlink">
 <defs>
  <style type="text/css">
   <![CDATA[
    .fil1 {fill:#FEFEFE}
    .fil0 {fill:#FEFEFE;fill-rule:nonzero;fill-opacity:0.301961}
    .fil2 {fill:#FEFEFE;fill-rule:nonzero;fill-opacity:0.501961}
   ]]>
  </style>
 </defs>
 <g id="Camada_x0020_1">
  <metadata id="CorelCorpID_0Corel-Layer"/>
  <g id="_1132174128">
   <polygon class="fil0" points="148,297 0,148 148,0 297,148 "/>
   <g>
    <path class="fil1" d="M34 10c0,-1 0,-2 1,-2l137 0c1,0 2,1 2,2l0 163 -25 0c-5,0 -10,5 -10,10l0 25 -104 0c-1,0 -1,-1 -1,-2l0 -196zm113 192l0 -19c0,-1 1,-2 2,-2l19 0 -21 21zm-112 14l108 0c1,0 1,0 2,-1 0,0 1,0 1,-1l35 -34 0 0c0,0 0,-1 0,-1l1 -1c0,0 0,0 0,-1l0 0 0 -167c0,-5 -4,-9 -10,-9l-137 0c-5,0 -9,4 -9,9l0 196c0,5 4,10 9,10z"/>
    <path class="fil1" d="M133 244c1,1 2,1 3,1 1,0 2,0 3,-1l7 -6c1,-2 1,-5 0,-6l-7 -7c-2,-1 -4,-1 -6,0 -1,2 -1,4 0,6l0 0 -59 0 0 0c2,-2 2,-4 0,-6 -1,-1 -4,-1 -5,0l-7 7c0,0 -1,1 -1,1 0,1 0,1 0,2 0,0 0,1 0,1 0,1 1,1 1,2l7 6c0,1 1,1 3,1 1,0 2,0 2,-1 2,-1 2,-4 0,-5l0 0 59 0 0 0c-1,1 -1,4 0,5z"/>
    <path class="fil1" d="M199 162c-1,-1 -4,-1 -5,0 -2,2 -2,4 0,6l6 7 0 0c1,0 1,0 1,0 1,1 1,1 2,1 1,0 1,0 2,-1 0,0 0,0 1,0l0 0 7 -7c1,-2 1,-4 0,-6 -2,-1 -5,-1 -6,0l0 0 0 -108 0 0c1,1 2,1 3,1 1,0 2,0 3,-1 1,-2 1,-4 0,-6l-7 -6c-1,-1 -1,-1 -1,-1 -1,-1 -1,-1 -2,-1 -1,0 -1,0 -2,1 0,0 0,0 -1,1l-6 6c-2,2 -2,4 0,6 1,1 4,1 5,0l0 0 0 108 0 0z"/>
    <path class="fil1" d="M67 45l26 0c2,0 4,-2 4,-4 0,-2 -2,-4 -4,-4l-26 0c-2,0 -4,2 -4,4 0,2 2,4 4,4z"/>
    <path class="fil1" d="M67 179l26 0c2,0 4,-2 4,-4 0,-2 -2,-4 -4,-4l-26 0c-2,0 -4,2 -4,4 0,2 2,4 4,4z"/>
    <path class="fil1" d="M67 81l74 0c2,0 4,-1 4,-3 0,-3 -2,-4 -4,-4l-74 0c-2,0 -4,1 -4,4 0,2 2,3 4,3z"/>
    <path class="fil1" d="M67 99l74 0c2,0 4,-1 4,-4 0,-2 -2,-3 -4,-3l-74 0c-2,0 -4,1 -4,3 0,3 2,4 4,4z"/>
    <path class="fil1" d="M67 117l74 0c2,0 4,-1 4,-4 0,-2 -2,-4 -4,-4l-74 0c-2,0 -4,2 -4,4 0,3 2,4 4,4z"/>
    <path class="fil1" d="M67 135l74 0c2,0 4,-1 4,-4 0,-2 -2,-4 -4,-4l-74 0c-2,0 -4,2 -4,4 0,3 2,4 4,4z"/>
   </g>
   <g>
    <path class="fil2" d="M146 188c2,2 2,5 0,7 -2,1 -5,1 -7,0 -2,-2 -2,-5 0,-7 2,-2 5,-2 7,0z"/>
    <path class="fil2" d="M175 159c2,1 2,4 0,6 -2,2 -5,2 -6,0 -2,-2 -2,-5 0,-6 1,-2 4,-2 6,0z"/>
    <path class="fil2" d="M204 129c2,2 2,5 0,7 -1,2 -4,2 -6,0 -2,-2 -2,-5 0,-7 2,-1 5,-1 6,0z"/>
    <path class="fil2" d="M234 100c2,2 2,5 0,7 -2,1 -5,1 -7,0 -2,-2 -2,-5 0,-7 2,-2 5,-2 7,0z"/>
    <path class="fil2" d="M263 71c2,2 2,5 0,6 -2,2 -5,2 -7,0 -1,-1 -1,-4 0,-6 2,-2 5,-2 7,0z"/>
    <path class="fil2" d="M292 41c2,2 2,5 0,7 -1,2 -4,2 -6,0 -2,-2 -2,-5 0,-7 2,-1 5,-1 6,0z"/>
    <path class="fil2" d="M178 220c2,2 2,5 0,7 -2,2 -5,2 -6,0 -2,-2 -2,-5 0,-7 1,-1 4,-1 6,0z"/>
    <path class="fil2" d="M208 191c1,2 1,5 0,7 -2,1 -5,1 -7,0 -2,-2 -2,-5 0,-7 2,-2 5,-2 7,0z"/>
    <path class="fil2" d="M237 162c2,2 2,5 0,6 -2,2 -5,2 -7,0 -2,-1 -2,-4 0,-6 2,-2 5,-2 7,0z"/>
    <path class="fil2" d="M266 132c2,2 2,5 0,7 -2,2 -5,2 -6,0 -2,-2 -2,-5 0,-7 1,-1 4,-1 6,0z"/>
    <path class="fil2" d="M295 103c2,2 2,5 0,7 -1,2 -4,2 -6,0 -2,-2 -2,-5 0,-7 2,-2 5,-2 6,0z"/>
    <path class="fil2" d="M325 74c2,2 2,5 0,6 -2,2 -5,2 -7,0 -2,-1 -2,-4 0,-6 2,-2 5,-2 7,0z"/>
    <path class="fil2" d="M211 253c2,2 1,5 0,6 -2,2 -5,2 -7,0 -2,-1 -2,-4 0,-6 2,-2 5,-2 7,0z"/>
    <path class="fil2" d="M240 223c2,2 2,5 0,7 -2,2 -5,2 -7,0 -1,-2 -1,-5 0,-7 2,-1 5,-1 7,0z"/>
    <path class="fil2" d="M269 194c2,2 2,5 0,7 -2,2 -4,2 -6,0 -2,-2 -2,-5 0,-7 2,-2 4,-2 6,0z"/>
    <path class="fil2" d="M299 165c1,2 1,5 0,6 -2,2 -5,2 -7,0 -2,-1 -2,-4 0,-6 2,-2 5,-2 7,0z"/>
    <path class="fil2" d="M328 136c2,1 2,4 0,6 -2,2 -5,2 -7,0 -2,-2 -2,-5 0,-6 2,-2 5,-2 7,0z"/>
    <path class="fil2" d="M357 106c2,2 2,5 0,7 -2,2 -5,2 -6,0 -2,-2 -2,-5 0,-7 1,-2 4,-2 6,0z"/>
    <path class="fil2" d="M243 285c2,2 2,5 0,7 -2,2 -5,2 -6,0 -2,-2 -2,-5 0,-7 1,-2 4,-2 6,0z"/>
    <path class="fil2" d="M272 256c2,2 2,5 0,6 -1,2 -4,2 -6,0 -2,-1 -2,-4 0,-6 2,-2 5,-2 6,0z"/>
    <path class="fil2" d="M302 227c2,1 2,4 0,6 -2,2 -5,2 -7,0 -2,-2 -2,-5 0,-6 2,-2 5,-2 7,0z"/>
    <path class="fil2" d="M331 197c2,2 2,5 0,7 -2,2 -5,2 -7,0 -1,-2 -1,-5 0,-7 2,-2 5,-2 7,0z"/>
    <path class="fil2" d="M360 168c2,2 2,5 0,7 -2,1 -4,1 -6,0 -2,-2 -2,-5 0,-7 2,-2 4,-2 6,0z"/>
    <path class="fil2" d="M390 139c1,1 1,4 0,6 -2,2 -5,2 -7,0 -2,-2 -2,-5 0,-6 2,-2 5,-2 7,0z"/>
   </g>
  </g>
 </g>
</svg>
