<?xml version="1.0" encoding="UTF-8"?>
<!DOCTYPE svg PUBLIC "-//W3C//DTD SVG 1.1//EN" "http://www.w3.org/Graphics/SVG/1.1/DTD/svg11.dtd">
<!-- Creator: CorelDRAW X8 -->
<svg xmlns="http://www.w3.org/2000/svg" xml:space="preserve" width="64.5mm" height="48.6625mm" version="1.1" style="shape-rendering:geometricPrecision; text-rendering:geometricPrecision; image-rendering:optimizeQuality; fill-rule:evenodd; clip-rule:evenodd"
viewBox="0 0 546 412"
 xmlns:xlink="http://www.w3.org/1999/xlink">
 <defs>
  <style type="text/css">
   <![CDATA[
    .fil1 {fill:#FEFEFE}
    .fil0 {fill:#FEFEFE;fill-rule:nonzero;fill-opacity:0.301961}
    .fil2 {fill:#FEFEFE;fill-rule:nonzero;fill-opacity:0.501961}
   ]]>
  </style>
 </defs>
 <g id="Camada_x0020_1">
  <metadata id="CorelCorpID_0Corel-Layer"/>
  <g id="_1132173680">
   <polygon class="fil0" points="209,412 3,206 209,0 415,206 "/>
   <path class="fil1" d="M216 126c-1,0 -2,0 -3,0l0 0c-6,0 -11,1 -16,2l-1 0c-2,1 -4,1 -6,2 -1,0 -1,1 -2,1 -2,0 -3,1 -5,2 -1,0 -2,1 -3,1 -1,1 -2,1 -3,2 -2,1 -3,2 -5,3 0,0 -1,0 -2,1 -1,1 -3,2 -5,4l-1 0c-13,12 -23,28 -27,46l0 0c-1,3 -1,5 -1,7l0 1c-1,3 -1,6 -1,9 0,2 0,5 1,8 0,1 0,2 0,3 0,2 1,4 1,6 0,1 1,2 1,2 0,3 1,5 2,7 0,1 0,1 0,2 1,2 2,5 4,7 13,27 40,45 72,45 45,0 81,-36 81,-80 0,-45 -36,-81 -81,-81zm-50 -84l-149 0 35 35 149 0 -35 -35zm-156 156l35 35 0 -149 -35 -36 0 150zm122 41c-1,-2 -2,-5 -3,-7 0,-1 0,-2 0,-2 -1,-2 -1,-4 -2,-6 0,-2 0,-3 0,-5 -1,-1 -1,-2 -1,-4 0,-3 0,-6 0,-8 0,-4 0,-7 0,-10 0,0 0,-1 0,-1 1,-3 1,-5 1,-7 1,-1 1,-2 1,-2 0,-2 1,-5 2,-7l0 -1c1,-3 2,-5 3,-7l0 -1c1,-3 2,-5 3,-7l1 -1c1,-2 3,-5 4,-7l0 0c2,-2 3,-5 5,-7l0 0c2,-2 4,-4 6,-6l0 -1c2,-1 4,-3 6,-5l1 0c2,-2 4,-3 6,-5 0,0 1,0 1,-1 2,-1 4,-2 5,-3 1,0 2,-1 3,-1 1,-1 3,-2 4,-2 1,-1 3,-2 4,-2 1,-1 2,-1 3,-1 2,-1 4,-2 6,-2l0 0c6,-2 11,-3 17,-3l0 -31 -153 0 0 154 77 0 0 -1zm84 58c-34,0 -64,-19 -79,-48l-87 0c-1,0 -1,0 -2,0 -1,0 -1,0 -2,-1l-45 -45c-1,-1 -1,-2 -1,-3l0 -163c0,-2 1,-4 3,-5 1,0 1,0 2,0l0 0 163 0c1,0 2,1 3,1l45 45 0 0c0,1 1,1 1,1l0 1c0,0 0,1 0,1l0 0 0 35c50,1 89,41 89,91 0,49 -40,90 -90,90z"/>
   <g>
    <path class="fil2" d="M206 261c2,3 2,7 0,9 -3,3 -7,3 -9,0 -3,-2 -3,-6 0,-9 2,-2 6,-2 9,0z"/>
    <path class="fil2" d="M246 220c3,3 3,7 0,10 -2,2 -6,2 -9,0 -2,-3 -2,-7 0,-10 3,-2 7,-2 9,0z"/>
    <path class="fil2" d="M287 180c3,2 3,6 0,9 -2,2 -7,2 -9,0 -3,-3 -3,-7 0,-9 2,-3 7,-3 9,0z"/>
    <path class="fil2" d="M328 139c2,2 2,7 0,9 -3,3 -7,3 -9,0 -3,-2 -3,-7 0,-9 2,-3 6,-3 9,0z"/>
    <path class="fil2" d="M368 98c3,3 3,7 0,9 -2,3 -6,3 -9,0 -2,-2 -2,-6 0,-9 3,-2 7,-2 9,0z"/>
    <path class="fil2" d="M409 58c3,2 3,6 0,9 -2,2 -6,2 -9,0 -3,-3 -3,-7 0,-9 3,-3 7,-3 9,0z"/>
    <path class="fil2" d="M251 306c2,3 2,7 0,9 -3,3 -7,3 -9,0 -3,-2 -3,-6 0,-9 2,-2 6,-2 9,0z"/>
    <path class="fil2" d="M291 265c3,3 3,7 0,10 -2,2 -6,2 -9,0 -2,-3 -2,-7 0,-10 3,-2 7,-2 9,0z"/>
    <path class="fil2" d="M332 225c3,2 3,6 0,9 -2,2 -7,2 -9,0 -3,-3 -3,-7 0,-9 2,-3 7,-3 9,0z"/>
    <path class="fil2" d="M373 184c2,3 2,7 0,9 -3,3 -7,3 -9,0 -3,-2 -3,-6 0,-9 2,-3 6,-3 9,0z"/>
    <path class="fil2" d="M413 143c3,3 3,7 0,9 -2,3 -6,3 -9,0 -2,-2 -2,-6 0,-9 3,-2 7,-2 9,0z"/>
    <path class="fil2" d="M454 103c3,2 3,6 0,9 -2,2 -6,2 -9,0 -2,-3 -2,-7 0,-9 3,-3 7,-3 9,0z"/>
    <path class="fil2" d="M296 351c2,3 2,7 0,9 -3,3 -7,3 -9,0 -3,-2 -3,-6 0,-9 2,-2 6,-2 9,0z"/>
    <path class="fil2" d="M336 310c3,3 3,7 0,10 -2,2 -6,2 -9,0 -2,-3 -2,-7 0,-10 3,-2 7,-2 9,0z"/>
    <path class="fil2" d="M377 270c3,2 3,6 0,9 -2,2 -7,2 -9,0 -3,-3 -3,-7 0,-9 2,-3 7,-3 9,0z"/>
    <path class="fil2" d="M418 229c2,3 2,7 0,9 -3,3 -7,3 -9,0 -3,-2 -3,-6 0,-9 2,-3 6,-3 9,0z"/>
    <path class="fil2" d="M459 188c2,3 2,7 0,9 -3,3 -7,3 -10,0 -2,-2 -2,-6 0,-9 3,-2 7,-2 10,0z"/>
    <path class="fil2" d="M499 148c3,2 3,6 0,9 -2,2 -6,2 -9,0 -2,-3 -2,-7 0,-9 3,-3 7,-3 9,0z"/>
    <path class="fil2" d="M341 396c2,3 2,7 0,9 -3,3 -7,3 -9,0 -3,-2 -3,-6 0,-9 2,-2 6,-2 9,0z"/>
    <path class="fil2" d="M381 355c3,3 3,7 0,10 -2,2 -6,2 -9,0 -2,-3 -2,-7 0,-10 3,-2 7,-2 9,0z"/>
    <path class="fil2" d="M422 315c3,2 3,6 0,9 -2,2 -6,2 -9,0 -3,-3 -3,-7 0,-9 3,-3 7,-3 9,0z"/>
    <path class="fil2" d="M463 274c2,3 2,7 0,9 -3,3 -7,3 -9,0 -3,-2 -3,-6 0,-9 2,-2 6,-2 9,0z"/>
    <path class="fil2" d="M504 233c2,3 2,7 0,10 -3,2 -7,2 -10,0 -2,-3 -2,-7 0,-10 3,-2 7,-2 10,0z"/>
    <path class="fil2" d="M544 193c3,2 3,6 0,9 -2,2 -6,2 -9,0 -2,-3 -2,-7 0,-9 3,-3 7,-3 9,0z"/>
   </g>
  </g>
 </g>
</svg>
