<?xml version="1.0" encoding="UTF-8"?>
<!DOCTYPE svg PUBLIC "-//W3C//DTD SVG 1.1//EN" "http://www.w3.org/Graphics/SVG/1.1/DTD/svg11.dtd">
<!-- Creator: CorelDRAW X8 -->
<svg xmlns="http://www.w3.org/2000/svg" xml:space="preserve" width="68.9829mm" height="49.0743mm" version="1.1" style="shape-rendering:geometricPrecision; text-rendering:geometricPrecision; image-rendering:optimizeQuality; fill-rule:evenodd; clip-rule:evenodd"
viewBox="0 0 521 371"
 xmlns:xlink="http://www.w3.org/1999/xlink">
 <defs>
  <style type="text/css">
   <![CDATA[
    .fil1 {fill:#FEFEFE}
    .fil0 {fill:#FEFEFE;fill-rule:nonzero;fill-opacity:0.301961}
    .fil2 {fill:#FEFEFE;fill-rule:nonzero;fill-opacity:0.501961}
   ]]>
  </style>
 </defs>
 <g id="Camada_x0020_1">
  <metadata id="CorelCorpID_0Corel-Layer"/>
  <g id="_1055747248">
   <polygon class="fil0" points="220,371 37,187 220,3 404,187 "/>
   <path class="fil1" d="M160 244l-149 0 0 -11 34 0c3,0 6,-2 6,-5 0,-3 -3,-6 -6,-6l-34 0c1,-20 18,-36 38,-36l175 0c20,0 37,16 38,36l-176 0c-3,0 -6,3 -6,6 0,3 3,5 6,5l176 0 0 11 -102 0zm-65 -185c-17,13 -28,34 -28,56 0,3 3,5 6,5 3,0 5,-2 5,-5 0,-19 9,-36 24,-48 2,-1 3,-5 1,-7 -2,-2 -5,-3 -8,-1zm78 226c2,-2 2,-5 0,-7 -3,-2 -6,-2 -8,0 -8,7 -18,12 -29,12 -10,0 -21,-5 -28,-12 -2,-2 -6,-2 -8,0 -2,2 -2,5 0,7 10,10 23,15 36,15 14,0 27,-5 37,-15zm-37 -17c-8,0 -15,-6 -18,-14l36 0c-2,8 -9,14 -18,14zm-79 -158c0,-99 158,-98 158,0l0 66 -158 0 0 -66zm79 -99c10,0 19,7 21,16 -5,-1 -10,-1 -15,-1l-11 0c-5,0 -10,0 -15,1 2,-9 10,-16 20,-16zm137 238l0 -24c0,-26 -21,-48 -47,-49l0 -66c0,-37 -25,-69 -59,-80 0,-17 -14,-30 -31,-30 -16,0 -30,13 -31,30 -34,11 -58,43 -58,80l0 66c-26,1 -47,23 -47,49l0 24c0,3 2,5 5,5l103 0c2,14 14,24 28,24 15,0 27,-10 29,-24l103 0c2,0 5,-2 5,-5z"/>
   <g>
    <path class="fil2" d="M217 236c3,2 3,6 0,8 -2,3 -5,3 -8,0 -2,-2 -2,-6 0,-8 3,-2 6,-2 8,0z"/>
    <path class="fil2" d="M254 200c2,2 2,6 0,8 -3,2 -6,2 -8,0 -3,-2 -3,-6 0,-8 2,-2 5,-2 8,0z"/>
    <path class="fil2" d="M290 163c2,3 2,6 0,9 -2,2 -6,2 -8,0 -2,-3 -2,-6 0,-9 2,-2 6,-2 8,0z"/>
    <path class="fil2" d="M326 127c3,2 3,6 0,8 -2,3 -6,3 -8,0 -2,-2 -2,-6 0,-8 2,-2 6,-2 8,0z"/>
    <path class="fil2" d="M363 91c2,2 2,6 0,8 -3,2 -6,2 -8,0 -3,-2 -3,-6 0,-8 2,-2 5,-2 8,0z"/>
    <path class="fil2" d="M399 54c2,3 2,6 0,9 -2,2 -6,2 -8,0 -2,-3 -2,-6 0,-9 2,-2 6,-2 8,0z"/>
    <path class="fil2" d="M258 276c2,3 2,6 0,8 -3,3 -6,3 -9,0 -2,-2 -2,-5 0,-8 3,-2 6,-2 9,0z"/>
    <path class="fil2" d="M294 240c2,2 2,6 0,8 -2,2 -6,2 -8,0 -2,-2 -2,-6 0,-8 2,-2 6,-2 8,0z"/>
    <path class="fil2" d="M330 204c3,2 3,6 0,8 -2,2 -6,2 -8,0 -2,-2 -2,-6 0,-8 2,-3 6,-3 8,0z"/>
    <path class="fil2" d="M367 167c2,3 2,6 0,8 -3,3 -6,3 -9,0 -2,-2 -2,-5 0,-8 3,-2 6,-2 9,0z"/>
    <path class="fil2" d="M403 131c2,2 2,6 0,8 -2,2 -6,2 -8,0 -3,-2 -3,-6 0,-8 2,-2 6,-2 8,0z"/>
    <path class="fil2" d="M439 95c2,2 2,6 0,8 -2,2 -6,2 -8,0 -2,-2 -2,-6 0,-8 2,-3 6,-3 8,0z"/>
    <path class="fil2" d="M298 316c2,3 2,6 0,9 -2,2 -6,2 -8,0 -3,-3 -3,-6 0,-9 2,-2 6,-2 8,0z"/>
    <path class="fil2" d="M334 280c2,2 2,6 0,8 -2,3 -6,3 -8,0 -2,-2 -2,-6 0,-8 2,-2 6,-2 8,0z"/>
    <path class="fil2" d="M370 244c3,2 3,6 0,8 -2,2 -5,2 -8,0 -2,-2 -2,-6 0,-8 3,-2 6,-2 8,0z"/>
    <path class="fil2" d="M407 208c2,2 2,5 0,8 -2,2 -6,2 -8,0 -3,-3 -3,-6 0,-8 2,-3 6,-3 8,0z"/>
    <path class="fil2" d="M443 171c2,2 2,6 0,8 -2,3 -6,3 -8,0 -2,-2 -2,-6 0,-8 2,-2 6,-2 8,0z"/>
    <path class="fil2" d="M479 135c3,2 3,6 0,8 -2,2 -5,2 -8,0 -2,-2 -2,-6 0,-8 3,-2 6,-2 8,0z"/>
    <path class="fil2" d="M338 357c2,2 2,6 0,8 -2,2 -6,2 -8,0 -2,-2 -2,-6 0,-8 2,-3 6,-3 8,0z"/>
    <path class="fil2" d="M374 320c3,3 3,6 0,9 -2,2 -6,2 -8,0 -2,-3 -2,-6 0,-9 2,-2 6,-2 8,0z"/>
    <path class="fil2" d="M411 284c2,2 2,6 0,8 -3,2 -6,2 -9,0 -2,-2 -2,-6 0,-8 3,-2 6,-2 9,0z"/>
    <path class="fil2" d="M447 248c2,2 2,6 0,8 -2,2 -6,2 -8,0 -2,-2 -2,-6 0,-8 2,-3 6,-3 8,0z"/>
    <path class="fil2" d="M483 211c3,3 3,6 0,9 -2,2 -6,2 -8,0 -2,-3 -2,-6 0,-9 2,-2 6,-2 8,0z"/>
    <path class="fil2" d="M520 175c2,2 2,6 0,8 -3,2 -6,2 -9,0 -2,-2 -2,-6 0,-8 3,-2 6,-2 9,0z"/>
   </g>
  </g>
 </g>
</svg>
