<?xml version="1.0" encoding="UTF-8"?>
<!DOCTYPE svg PUBLIC "-//W3C//DTD SVG 1.1//EN" "http://www.w3.org/Graphics/SVG/1.1/DTD/svg11.dtd">
<!-- Creator: CorelDRAW X8 -->
<svg xmlns="http://www.w3.org/2000/svg" xml:space="preserve" width="67.9181mm" height="48.6625mm" version="1.1" style="shape-rendering:geometricPrecision; text-rendering:geometricPrecision; image-rendering:optimizeQuality; fill-rule:evenodd; clip-rule:evenodd"
viewBox="0 0 751 538"
 xmlns:xlink="http://www.w3.org/1999/xlink">
 <defs>
  <style type="text/css">
   <![CDATA[
    .fil1 {fill:#FEFEFE;fill-rule:nonzero}
    .fil0 {fill:#FEFEFE;fill-rule:nonzero;fill-opacity:0.301961}
    .fil2 {fill:#FEFEFE;fill-rule:nonzero;fill-opacity:0.501961}
   ]]>
  </style>
 </defs>
 <g id="Camada_x0020_1">
  <metadata id="CorelCorpID_0Corel-Layer"/>
  <g id="_1139358592">
   <polygon class="fil0" points="311,538 42,269 311,0 580,269 "/>
   <path class="fil1" d="M178 88c-27,1 -53,8 -76,21l11 18c1,3 0,6 -3,8 -2,2 -6,1 -8,-2l-10 -19c-11,8 -22,16 -31,25 -10,10 -18,20 -25,31l18 11c3,1 4,5 3,8 -2,3 -6,4 -8,2l-19 -11c-12,23 -19,49 -20,77l40 0c3,0 6,2 6,6 0,3 -3,5 -6,5l-40 0c1,28 8,54 20,77l19 -11c2,-2 6,-1 8,2 1,3 0,7 -3,8l-18 11c7,11 15,21 25,31 9,9 20,18 31,25l10 -19c2,-3 6,-3 8,-2 3,2 4,5 3,8l-11 18c23,13 49,20 76,21l0 -40c0,-4 3,-6 6,-6 3,0 6,2 6,6l0 40c27,-1 53,-8 76,-21l-10 -18c-2,-3 -1,-6 2,-8 3,-2 6,-1 8,2l10 19c12,-7 22,-16 31,-25 10,-10 18,-20 25,-31l-18 -11c-3,-1 -4,-5 -2,-8 1,-3 5,-4 8,-2l18 11c12,-23 20,-49 21,-77l-41 0c-3,0 -6,-2 -6,-5 0,-4 3,-6 6,-6l41 0c-1,-28 -9,-54 -21,-77l-18 11c-3,2 -7,1 -8,-2 -2,-3 -1,-6 2,-8l18 -11c-7,-11 -15,-21 -25,-31 -9,-9 -19,-17 -31,-25l-10 19c-2,3 -5,4 -8,2 -3,-2 -4,-5 -2,-8l10 -18c-23,-13 -49,-20 -76,-21l0 40c0,4 -3,6 -6,6 -3,0 -6,-2 -6,-6l0 -40zm-53 129c-2,-2 -2,-5 0,-8 2,-2 6,-2 8,0l52 48 81 -65c3,-2 6,-2 8,1 2,2 2,6 -1,8l-85 69c-2,1 -6,1 -8,-1l-55 -52zm-71 -85c33,-33 79,-54 130,-54 51,0 97,21 130,54 34,34 54,80 54,131 0,50 -20,96 -54,130 -33,33 -79,54 -130,54 -51,0 -97,-21 -130,-54 -33,-34 -54,-80 -54,-130 0,-51 21,-97 54,-131z"/>
   <g>
    <path class="fil2" d="M306 341c4,3 4,9 0,12 -3,3 -8,3 -12,0 -3,-3 -3,-9 0,-12 4,-3 9,-3 12,0z"/>
    <path class="fil2" d="M360 288c3,3 3,8 0,12 -4,3 -9,3 -12,0 -4,-4 -4,-9 0,-12 3,-4 8,-4 12,0z"/>
    <path class="fil2" d="M413 235c3,3 3,8 0,12 -4,3 -9,3 -12,0 -4,-4 -4,-9 0,-12 3,-4 8,-4 12,0z"/>
    <path class="fil2" d="M466 181c3,4 3,9 0,12 -3,4 -9,4 -12,0 -3,-3 -3,-8 0,-12 3,-3 9,-3 12,0z"/>
    <path class="fil2" d="M519 128c3,4 3,9 0,12 -3,4 -9,4 -12,0 -3,-3 -3,-8 0,-12 3,-3 9,-3 12,0z"/>
    <path class="fil2" d="M572 75c3,3 3,9 0,12 -3,3 -9,3 -12,0 -3,-3 -3,-9 0,-12 3,-3 9,-3 12,0z"/>
    <path class="fil2" d="M365 400c3,3 3,8 0,12 -3,3 -8,3 -12,0 -3,-4 -3,-9 0,-12 4,-4 9,-4 12,0z"/>
    <path class="fil2" d="M418 347c4,3 4,8 0,12 -3,3 -8,3 -12,0 -3,-4 -3,-9 0,-12 4,-4 9,-4 12,0z"/>
    <path class="fil2" d="M472 293c3,4 3,9 0,12 -4,4 -9,4 -12,0 -4,-3 -4,-8 0,-12 3,-3 8,-3 12,0z"/>
    <path class="fil2" d="M525 240c3,4 3,9 0,12 -4,4 -9,4 -12,0 -4,-3 -4,-8 0,-12 3,-3 8,-3 12,0z"/>
    <path class="fil2" d="M578 187c3,3 3,9 0,12 -3,3 -9,3 -12,0 -3,-3 -3,-9 0,-12 3,-3 9,-3 12,0z"/>
    <path class="fil2" d="M631 134c3,3 3,9 0,12 -3,3 -9,3 -12,0 -3,-3 -3,-9 0,-12 3,-3 9,-3 12,0z"/>
    <path class="fil2" d="M424 459c3,3 3,8 0,12 -3,3 -9,3 -12,0 -3,-4 -3,-9 0,-12 3,-4 9,-4 12,0z"/>
    <path class="fil2" d="M477 405c3,4 3,9 0,12 -3,4 -8,4 -12,0 -3,-3 -3,-8 0,-12 4,-3 9,-3 12,0z"/>
    <path class="fil2" d="M530 352c4,4 4,9 0,12 -3,4 -8,4 -12,0 -3,-3 -3,-8 0,-12 4,-3 9,-3 12,0z"/>
    <path class="fil2" d="M583 299c4,3 4,9 0,12 -3,3 -8,3 -11,0 -4,-3 -4,-9 0,-12 3,-3 8,-3 11,0z"/>
    <path class="fil2" d="M637 246c3,3 3,9 0,12 -4,3 -9,3 -12,0 -4,-3 -4,-9 0,-12 3,-3 8,-3 12,0z"/>
    <path class="fil2" d="M690 193c3,3 3,8 0,12 -4,3 -9,3 -12,0 -3,-4 -3,-9 0,-12 3,-4 8,-4 12,0z"/>
    <path class="fil2" d="M483 517c3,4 3,9 0,12 -3,4 -9,4 -12,0 -3,-3 -3,-8 0,-12 3,-3 9,-3 12,0z"/>
    <path class="fil2" d="M536 464c3,4 3,9 0,12 -3,3 -9,3 -12,0 -3,-3 -3,-8 0,-12 3,-3 9,-3 12,0z"/>
    <path class="fil2" d="M589 411c3,3 3,9 0,12 -3,3 -9,3 -12,0 -3,-3 -3,-9 0,-12 3,-3 9,-3 12,0z"/>
    <path class="fil2" d="M642 358c4,3 4,9 0,12 -3,3 -8,3 -12,0 -3,-3 -3,-9 0,-12 4,-3 9,-3 12,0z"/>
    <path class="fil2" d="M695 305c4,3 4,8 0,12 -3,3 -8,3 -12,0 -3,-4 -3,-9 0,-12 4,-4 9,-4 12,0z"/>
    <path class="fil2" d="M749 252c3,3 3,8 0,12 -4,3 -9,3 -12,0 -4,-4 -4,-9 0,-12 3,-4 8,-4 12,0z"/>
   </g>
  </g>
 </g>
</svg>
