<?xml version="1.0" encoding="UTF-8"?>
<!DOCTYPE svg PUBLIC "-//W3C//DTD SVG 1.1//EN" "http://www.w3.org/Graphics/SVG/1.1/DTD/svg11.dtd">
<!-- Creator: CorelDRAW X8 -->
<svg xmlns="http://www.w3.org/2000/svg" xml:space="preserve" width="70.3981mm" height="48.6625mm" version="1.1" style="shape-rendering:geometricPrecision; text-rendering:geometricPrecision; image-rendering:optimizeQuality; fill-rule:evenodd; clip-rule:evenodd"
viewBox="0 0 1071 740"
 xmlns:xlink="http://www.w3.org/1999/xlink">
 <defs>
  <style type="text/css">
   <![CDATA[
    .fil2 {fill:#FEFEFE}
    .fil3 {fill:#FEFEFE;fill-rule:nonzero}
    .fil0 {fill:#FEFEFE;fill-rule:nonzero;fill-opacity:0.301961}
    .fil1 {fill:#FEFEFE;fill-rule:nonzero;fill-opacity:0.501961}
   ]]>
  </style>
 </defs>
 <g id="Camada_x0020_1">
  <metadata id="CorelCorpID_0Corel-Layer"/>
  <g id="_1055785296">
   <polygon class="fil0" points="465,740 95,370 465,0 835,370 "/>
   <g>
    <path class="fil1" d="M459 469c5,4 5,12 0,16 -4,5 -12,5 -16,0 -5,-4 -5,-12 0,-16 4,-5 12,-5 16,0z"/>
    <path class="fil1" d="M532 396c5,4 5,12 0,16 -4,5 -12,5 -16,0 -5,-4 -5,-12 0,-16 4,-5 12,-5 16,0z"/>
    <path class="fil1" d="M605 323c5,4 5,12 0,16 -4,5 -12,5 -16,0 -5,-4 -5,-12 0,-16 4,-5 12,-5 16,0z"/>
    <path class="fil1" d="M678 250c5,4 5,12 0,16 -4,5 -12,5 -16,0 -5,-4 -5,-12 0,-16 4,-5 12,-5 16,0z"/>
    <path class="fil1" d="M751 176c5,5 5,12 0,17 -4,4 -11,4 -16,0 -5,-5 -5,-12 0,-17 5,-4 12,-4 16,0z"/>
    <path class="fil1" d="M825 103c4,5 4,12 0,17 -5,4 -12,4 -17,0 -4,-5 -4,-12 0,-17 5,-4 12,-4 17,0z"/>
    <path class="fil1" d="M540 550c5,4 4,12 0,16 -5,5 -12,5 -16,0 -5,-4 -5,-12 0,-16 4,-5 11,-5 16,0z"/>
    <path class="fil1" d="M613 477c5,4 5,12 0,16 -4,5 -12,5 -16,0 -5,-4 -5,-12 0,-16 4,-5 12,-5 16,0z"/>
    <path class="fil1" d="M686 404c5,4 5,11 0,16 -4,5 -12,5 -16,0 -5,-5 -5,-12 0,-16 4,-5 12,-5 16,0z"/>
    <path class="fil1" d="M759 330c5,5 5,12 0,17 -4,4 -12,4 -16,0 -5,-5 -5,-12 0,-17 4,-4 12,-4 16,0z"/>
    <path class="fil1" d="M832 257c5,5 5,12 0,17 -4,4 -12,4 -16,0 -5,-5 -5,-12 0,-17 4,-4 12,-4 16,0z"/>
    <path class="fil1" d="M905 184c5,5 5,12 0,17 -4,4 -11,4 -16,0 -5,-5 -5,-12 0,-17 5,-4 12,-4 16,0z"/>
    <path class="fil1" d="M621 631c4,4 4,12 0,16 -5,5 -12,5 -17,0 -4,-4 -4,-12 0,-16 5,-5 12,-5 17,0z"/>
    <path class="fil1" d="M694 558c4,4 4,11 0,16 -5,5 -12,5 -17,0 -4,-5 -4,-12 0,-16 5,-5 12,-5 17,0z"/>
    <path class="fil1" d="M767 484c5,5 5,12 0,17 -5,4 -12,4 -16,0 -5,-5 -5,-12 0,-17 4,-4 11,-4 16,0z"/>
    <path class="fil1" d="M840 411c5,5 5,12 0,17 -4,4 -12,4 -16,0 -5,-5 -5,-12 0,-17 4,-4 12,-4 16,0z"/>
    <path class="fil1" d="M913 338c5,5 5,12 0,17 -4,4 -12,4 -16,0 -5,-5 -5,-12 0,-17 4,-4 12,-4 16,0z"/>
    <path class="fil1" d="M986 265c5,5 5,12 0,17 -4,4 -12,4 -16,0 -5,-5 -5,-12 0,-17 4,-4 12,-4 16,0z"/>
    <path class="fil1" d="M702 712c4,4 4,11 0,16 -5,5 -12,5 -17,0 -4,-5 -4,-12 0,-16 5,-5 12,-5 17,0z"/>
    <path class="fil1" d="M775 638c4,5 4,12 0,17 -5,4 -12,4 -17,0 -4,-5 -4,-12 0,-17 5,-4 12,-4 17,0z"/>
    <path class="fil1" d="M848 565c4,5 4,12 0,17 -5,4 -12,4 -17,0 -4,-5 -4,-12 0,-17 5,-4 12,-4 17,0z"/>
    <path class="fil1" d="M921 492c5,5 5,12 0,17 -5,4 -12,4 -16,0 -5,-5 -5,-12 0,-17 4,-4 11,-4 16,0z"/>
    <path class="fil1" d="M994 419c5,5 5,12 0,17 -4,4 -12,4 -16,0 -5,-5 -5,-12 0,-17 4,-4 12,-4 16,0z"/>
    <path class="fil1" d="M1067 346c5,5 5,12 0,16 -4,5 -12,5 -16,0 -5,-4 -5,-11 0,-16 4,-5 12,-5 16,0z"/>
   </g>
   <g>
    <path class="fil2" d="M569 556l-154 0c-4,-15 -17,-26 -33,-26l-133 0c-17,0 -30,11 -34,26l-154 0c-20,0 -38,-14 -42,-33l592 0c-4,19 -21,33 -42,33zm-334 0c3,-4 8,-7 14,-7l133 0c5,0 11,3 14,7l-161 0zm-170 -390l500 0c4,0 7,3 7,7l0 332 -514 0 0 -332c0,-4 3,-7 7,-7zm556 339l-31 0 0 -339c0,-10 -8,-18 -18,-18l-514 0c-10,0 -18,8 -18,18l0 339 -31 0c-5,0 -9,4 -9,9 0,33 27,61 61,61l508 0c34,0 61,-28 61,-61 0,-5 -4,-9 -9,-9z"/>
    <path class="fil3" d="M315 228c31,0 59,12 79,33 20,20 33,48 33,79 0,30 -13,58 -33,79 -20,20 -48,32 -79,32 -31,0 -59,-12 -79,-32 -20,-21 -33,-49 -33,-79 0,-31 13,-59 33,-79 20,-21 48,-33 79,-33zm-19 63l68 32c2,1 4,2 5,4 2,2 2,4 3,6 0,3 0,5 -1,7l0 0c-1,3 -2,5 -4,6l-56 49c-2,2 -5,3 -7,4l0 0c-3,0 -5,0 -8,-1 -2,-1 -4,-2 -6,-4 -1,-2 -2,-5 -3,-7l-11 -81c-1,-3 0,-5 1,-8 1,-2 2,-4 4,-6 2,-1 5,-2 7,-2 3,-1 5,0 8,1l0 0zm57 45l-60 -27 10 70 50 -43zm29 -63c-17,-17 -41,-28 -67,-28 -26,0 -50,11 -67,28 -17,17 -28,40 -28,67 0,26 11,49 28,66 17,18 41,28 67,28 26,0 50,-10 67,-28 17,-17 28,-40 28,-66 0,-27 -11,-50 -28,-67z"/>
   </g>
  </g>
 </g>
</svg>
