<svg id="Camada_1" data-name="Camada 1" xmlns="http://www.w3.org/2000/svg" viewBox="0 0 32 32"><title>Sem título-1</title><path d="M4.81,21a3.59,3.59,0,0,0,1.46-.29,3.07,3.07,0,0,0,1.09-.78A3.42,3.42,0,0,0,8,18.72a4.46,4.46,0,0,0,.24-1.48v-7H9.1v7A5,5,0,0,1,8.8,19,4.33,4.33,0,0,1,8,20.41a4,4,0,0,1-1.35.94,4.47,4.47,0,0,1-1.79.35A4.47,4.47,0,0,1,3,21.35a4,4,0,0,1-1.35-.94A4.17,4.17,0,0,1,.82,19a5,5,0,0,1-.3-1.75v-7h.82v7a4.46,4.46,0,0,0,.24,1.48,3.49,3.49,0,0,0,.68,1.19,3.22,3.22,0,0,0,1.09.79A3.56,3.56,0,0,0,4.81,21Z"/><path d="M14.9,15.75,11,10.24h.81a.23.23,0,0,1,.16,0,.31.31,0,0,1,.09.11l3.44,5,.06-.12a1.39,1.39,0,0,1,.06-.13l3.32-4.7.11-.12a.21.21,0,0,1,.13,0H20l-3.91,5.47,4.07,5.85h-.81a.24.24,0,0,1-.18-.07.64.64,0,0,1-.1-.13l-3.57-5.21a.8.8,0,0,1-.11.23l-3.5,5a.86.86,0,0,1-.13.14.27.27,0,0,1-.17.06h-.74Z"/><path d="M31.48,15.9a6.75,6.75,0,0,1-.39,2.36A5,5,0,0,1,30,20a4.74,4.74,0,0,1-1.7,1.13,5.94,5.94,0,0,1-2.2.39H22V10.24h4.13a5.94,5.94,0,0,1,2.2.39A4.87,4.87,0,0,1,30,11.76a5,5,0,0,1,1.11,1.79A6.7,6.7,0,0,1,31.48,15.9Zm-.85,0a6.27,6.27,0,0,0-.33-2.11,4.29,4.29,0,0,0-.92-1.57,4,4,0,0,0-1.44-1,5,5,0,0,0-1.86-.33h-3.3v10h3.3a4.85,4.85,0,0,0,1.86-.34,4,4,0,0,0,1.44-1A4.29,4.29,0,0,0,30.3,18,6.33,6.33,0,0,0,30.63,15.9Z"/></svg>