<?xml version="1.0" encoding="utf-8"?>
<!-- Generator: Adobe Illustrator 19.1.0, SVG Export Plug-In . SVG Version: 6.00 Build 0)  -->
<svg version="1.1" id="Layer_1" xmlns="http://www.w3.org/2000/svg" xmlns:xlink="http://www.w3.org/1999/xlink" x="0px" y="0px"
	 viewBox="0 0 206.1 37.6" style="enable-background:new 0 0 206.1 37.6;" xml:space="preserve">
<style type="text/css">
	.st0{fill:#FFFFFF;}
	.st1{display:none;}
	.st2{display:inline;fill:none;stroke:#1E1E1C;stroke-miterlimit:10;}
	.st3{display:inline;fill:#FFFFFF;}
	.st4{display:inline;fill:#DA3035;}
	.st5{display:inline;}
	.st6{fill:#DA3035;}
</style>
<g>
	<g>
		<g>
			<polygon class="st0" points="21.5,5.5 21.5,1.1 2.1,1.1 2.1,35.8 2.3,35.8 19.5,35.8 21.4,31.5 14.2,31.5 7,31.5 7,20 20.2,20 
				20.2,15.7 7,15.7 7,5.5 			"/>
			<path class="st0" d="M80.4,13.3c-0.5-2-1.4-3.7-2.6-5.3C74.6,3.6,69,1.1,62.6,1.1H52.4v16.3v14.1l0.8,1.9l1,2.5h8.4
				c11.4,0,18.5-6,18.5-17.7C81.1,16.4,80.9,14.8,80.4,13.3z M62.5,31.5h-5.2v-1.1V15.6V5.5h5.8c4,0,7.5,1.5,9.8,4.3
				c1.5,1.8,2.5,4.1,2.8,6.9c0.1,0.5,0.1,1.1,0.1,1.6C75.8,27.3,71.1,31.5,62.5,31.5z"/>
			<path class="st0" d="M53.2,33.4l-0.8-1.9l-5.1-12.2L39.5,1.1h-5.2L22.7,28.3l-1.3,3.1l-1.9,4.4h2h3.2l3.5-8.8h17l3.5,8.8h1.1h2.5
				h1.8L53.2,33.4z M37.1,23h-7.3l6.9-17.2l6.1,15.1l0.8,2.1H37.1z"/>
		</g>
		<circle class="st0" cx="85.1" cy="32.4" r="4.1"/>
	</g>
	<g>
		<g>
			<polygon class="st0" points="115,22.8 131.3,22.8 131.3,14.4 115,14.4 115,9.5 132,9.5 132,1.1 101.9,1.1 101.9,35.9 132.4,35.9 
				132.4,27.5 115,27.5 			"/>
			<path class="st0" d="M148.5,11.2c0-2.2,3.6-2.3,5.7-2.3c3.8,0,7.3,0.7,10.3,1.7V1.7c-3.6-0.7-7.8-1.2-11.5-1.2
				c-7.9,0-17.9,1.7-17.9,11.2c0,13.5,18.3,9.3,18.3,13.9c0,1.7-2.8,2.4-6,2.4c-4,0-8.4-0.8-11.9-2.3v9c5,1.1,9.2,1.6,14.3,1.6
				c7.7,0,16.9-2.3,16.9-11.6C166.8,11.4,148.5,15.7,148.5,11.2z"/>
			<path class="st0" d="M196.2,18.3v-0.1c4.6-1.2,7.2-3.7,7.2-8.5c0-6.6-5.9-8.6-11.9-8.6h-21.8v34.7h20.1c7.2,0,14.3-0.9,14.3-9.6
				C204,22.7,201,18.9,196.2,18.3z M182.1,7.7h3.6c2.4,0,4.6,0.8,4.6,3.4c0,2.6-2.5,3.3-4.9,3.3h-3.3V7.7z M185.6,28.7h-3.5v-7.1
				h3.6c2.5,0,5,0.5,5,3.5C190.7,27.8,188,28.7,185.6,28.7z"/>
			<polygon class="st0" points="97.3,0.8 84.1,0.8 84.1,1.1 96.5,1.1 			"/>
			<polygon class="st0" points="97.3,1.1 97.3,0.8 97.3,0.8 96.9,1.1 			"/>
			<polygon class="st0" points="96.5,1.1 84.1,1.1 84.1,5.7 			"/>
			<path class="st0" d="M96.9,1.1l-12.9,9.5l0,0v15.8c0.4-0.1,0.7-0.1,1.1-0.1c3.3,0,6,2.7,6,6c0,1.3-0.4,2.5-1.1,3.5h7.4V15.6V1.1
				H96.9z"/>
			<polygon class="st0" points="97.3,0.8 97.3,0.8 97.3,0.8 			"/>
			<polygon class="st0" points="96.5,1.1 96.9,1.1 97.3,0.8 97.3,0.8 			"/>
		</g>
	</g>
</g>
<g class="st1">
	<rect x="1034.3" y="-879.8" class="st2" width="212.7" height="240"/>
	<rect x="1070" y="-839.4" class="st3" width="141.1" height="159.3"/>
	<rect x="1075.1" y="-834.4" class="st4" width="131.5" height="131.5"/>
	<polygon id="raio" class="st3" points="1074.9,-790.6 1206.4,-834.4 1074.9,-746.2 	"/>
	<g id="iesb" class="st5">
		<rect x="1080.3" y="-743.4" class="st0" width="13.3" height="34.7"/>
		<polygon class="st0" points="1098.3,-743.6 1128.4,-743.6 1128.4,-735.3 1111.4,-735.3 1111.4,-730.3 1127.7,-730.3 1127.7,-722 
			1111.4,-722 1111.4,-717.2 1128.8,-717.2 1128.8,-708.9 1098.3,-708.9 		"/>
		<path class="st0" d="M1160.7-733.9c-1.5-0.5-3.1-0.9-4.8-1.3c-1.7-0.3-3.5-0.5-5.4-0.5c-0.5,0-1.1,0-1.8,0c-0.7,0-1.3,0.1-1.8,0.3
			c-0.6,0.1-1.1,0.4-1.4,0.7c-0.4,0.3-0.6,0.7-0.6,1.3c0,0.8,0.4,1.3,1.3,1.6c0.9,0.3,2,0.6,3.3,0.9c1.3,0.3,2.8,0.6,4.3,0.9
			c1.6,0.3,3,0.9,4.3,1.6c1.3,0.7,2.5,1.8,3.3,3.1c0.9,1.3,1.3,3.1,1.3,5.3c0,2.3-0.5,4.2-1.5,5.7c-1,1.5-2.3,2.7-4,3.5
			c-1.6,0.9-3.4,1.5-5.4,1.8s-3.9,0.5-5.8,0.5c-2.5,0-4.9-0.1-7.1-0.4c-2.2-0.3-4.6-0.7-7-1.2v-8.9c1.8,0.8,3.7,1.3,5.8,1.7
			c2.1,0.4,4.1,0.6,6,0.6c0.8,0,1.5,0,2.2-0.1c0.7-0.1,1.3-0.2,1.9-0.4c0.5-0.2,1-0.4,1.3-0.7c0.3-0.3,0.5-0.7,0.5-1.1
			c0-0.6-0.3-1-0.8-1.4c-0.5-0.3-1.2-0.6-2-0.8c-0.8-0.2-1.8-0.4-2.9-0.6c-1.1-0.2-2.2-0.5-3.3-0.8c-1.1-0.3-2.2-0.7-3.3-1.2
			c-1.1-0.5-2-1.1-2.9-1.9c-0.8-0.8-1.5-1.8-2-2.9c-0.5-1.1-0.8-2.6-0.8-4.2c0-2.4,0.5-4.3,1.6-5.7c1.1-1.5,2.5-2.6,4.2-3.4
			c1.7-0.8,3.6-1.3,5.7-1.6c2.1-0.3,4.1-0.4,6.1-0.4c1.9,0,3.8,0.1,5.7,0.3c1.9,0.2,3.8,0.5,5.6,0.9V-733.9z"/>
		<path class="st0" d="M1166.8-743.7h22c1.5,0,3,0.1,4.4,0.4c1.5,0.3,2.7,0.7,3.9,1.4c1.1,0.7,2,1.6,2.7,2.7c0.7,1.1,1,2.5,1,4.2
			c0,2.4-0.6,4.3-1.9,5.6c-1.2,1.4-3,2.3-5.4,2.9v0.1c1.2,0.2,2.3,0.5,3.3,1c1,0.5,1.8,1.1,2.5,1.9c0.7,0.7,1.2,1.5,1.5,2.4
			c0.4,0.9,0.5,1.8,0.5,2.6c0,2.2-0.4,4-1.2,5.2c-0.8,1.3-1.9,2.3-3.2,2.9c-1.3,0.7-2.9,1.1-4.6,1.3c-1.7,0.2-3.5,0.3-5.3,0.3h-20.3
			V-743.7z M1179.4-730.3h3.3c0.6,0,1.2,0,1.8-0.1c0.6-0.1,1.1-0.3,1.6-0.5c0.5-0.2,0.8-0.6,1.1-1c0.3-0.4,0.4-1,0.4-1.7
			c0-1.3-0.5-2.2-1.4-2.7c-0.9-0.5-2-0.7-3.2-0.7h-3.6V-730.3z M1179.4-715.9h3.5c0.6,0,1.2-0.1,1.8-0.2c0.6-0.1,1.2-0.3,1.6-0.6
			c0.5-0.3,0.9-0.7,1.2-1.1c0.3-0.5,0.4-1,0.4-1.7c0-0.7-0.1-1.3-0.4-1.8c-0.3-0.5-0.7-0.8-1.1-1.1c-0.5-0.3-1-0.4-1.6-0.5
			c-0.6-0.1-1.2-0.1-1.8-0.1h-3.6V-715.9z"/>
	</g>
	<g id="centrouni" class="st5">
		<g>
			<path class="st6" d="M1082.6-686.4c-0.8,0.3-1.7,0.4-2.5,0.4c-2.9,0-5-1.7-5-5.2c0-2.9,1.7-5.1,4.9-5.1c1.3,0,2.2,0.4,2.4,0.5
				l-0.1,2.2c-0.3-0.2-1.1-0.6-1.9-0.6c-1.7,0-2.5,1.1-2.5,3.1c0,1.7,0.9,3,2.6,3c1,0,1.7-0.4,1.9-0.6L1082.6-686.4z"/>
			<path class="st6" d="M1085.8-689.2c0.1,1.2,0.9,1.6,1.9,1.6c0.7,0,1.5-0.3,2.2-0.6l0.1,1.8c-0.6,0.2-1.6,0.4-2.6,0.4
				c-3,0-3.9-2-3.9-3.9c0-2,1.2-3.9,3.5-3.9c2.3,0,3.4,1.8,3.4,3.9v0.7H1085.8z M1088-690.5v-0.2c0-1-0.3-1.5-1-1.5
				c-0.7,0-1.2,0.7-1.2,1.7H1088z"/>
			<path class="st6" d="M1091.5-692.1c0-0.6,0-1.2-0.1-1.5h2.4c0,0.3,0.1,0.8,0.1,1.2h0c0.1-0.4,0.6-1.4,2.1-1.4
				c1.3,0,2.3,0.8,2.3,2.4v5.2h-2.6v-4.5c0-0.7-0.2-1.1-0.7-1.1c-0.6,0-0.9,0.7-0.9,1.4v4.1h-2.6V-692.1z"/>
			<path class="st6" d="M1099.1-693.6h1.3v-1.6l2.6-0.8v2.4h1.4v1.7h-1.4v3.2c0,0.6,0.4,0.9,0.8,0.9c0.3,0,0.5,0,0.6-0.1l0.1,1.7
				c-0.3,0.1-1,0.2-1.7,0.2c-1.4,0-2.4-0.8-2.4-2.2v-3.7h-1.3V-693.6z"/>
			<path class="st6" d="M1105.3-691.4c0-1.1,0-1.8-0.1-2.2h2.4c0,0.3,0.1,0.8,0.1,1.2h0c0.2-0.6,0.7-1.4,1.9-1.4c0.2,0,0.3,0,0.4,0
				v2.2c-0.1,0-0.5-0.1-0.8-0.1c-0.8,0-1.4,0.7-1.4,1.7v3.7h-2.6V-691.4z"/>
			<path class="st6" d="M1114.3-693.7c2.7,0,3.7,1.9,3.7,3.9c0,2-1,3.9-3.7,3.9s-3.7-1.9-3.7-3.9
				C1110.6-691.9,1111.6-693.7,1114.3-693.7 M1114.3-687.7c0.9,0,1-1.1,1-2.1c0-1.1-0.1-2.2-1-2.2s-1,1.1-1,2.2
				C1113.3-688.8,1113.4-687.7,1114.3-687.7"/>
		</g>
		<g>
			<path class="st6" d="M1125.5-689.8c0,1.1,0.2,1.9,1.2,1.9s1.2-0.8,1.2-1.9v-6.3h2.6v6.2c0,2.9-1.7,3.9-3.8,3.9
				c-2.1,0-3.8-1-3.8-3.9v-6.2h2.6V-689.8z"/>
			<path class="st6" d="M1131.9-692.1c0-0.6,0-1.2-0.1-1.5h2.4c0,0.3,0.1,0.8,0.1,1.2h0c0.1-0.4,0.6-1.4,2.1-1.4
				c1.3,0,2.3,0.8,2.3,2.4v5.2h-2.6v-4.5c0-0.7-0.2-1.1-0.7-1.1c-0.6,0-0.9,0.7-0.9,1.4v4.1h-2.6V-692.1z"/>
			<path class="st6" d="M1140.1-696.8h2.6v2.1h-2.6V-696.8z M1140.1-693.6h2.6v7.4h-2.6V-693.6z"/>
			<polygon class="st6" points="1143.5,-693.6 1146.2,-693.6 1147.5,-688.5 1147.5,-688.5 1148.7,-693.6 1151.3,-693.6 
				1148.9,-686.1 1145.8,-686.1 			"/>
			<path class="st6" d="M1154.2-689.2c0.1,1.2,0.9,1.6,1.9,1.6c0.7,0,1.5-0.3,2.2-0.6l0.1,1.8c-0.6,0.2-1.6,0.4-2.6,0.4
				c-3,0-3.9-2-3.9-3.9c0-2,1.2-3.9,3.5-3.9c2.3,0,3.4,1.8,3.4,3.9v0.7H1154.2z M1156.3-690.5v-0.2c0-1-0.3-1.5-1-1.5
				c-0.7,0-1.2,0.7-1.2,1.7H1156.3z"/>
			<path class="st6" d="M1159.8-691.4c0-1.1,0-1.8-0.1-2.2h2.4c0,0.3,0.1,0.8,0.1,1.2h0c0.2-0.6,0.7-1.4,1.9-1.4c0.2,0,0.3,0,0.4,0
				v2.2c-0.1,0-0.5-0.1-0.8-0.1c-0.8,0-1.4,0.7-1.4,1.7v3.7h-2.6V-691.4z"/>
			<path class="st6" d="M1165.4-688.3c0.4,0.2,1,0.5,1.9,0.5c0.7,0,1.1-0.2,1.1-0.5c0-0.3-0.2-0.4-0.8-0.6l-0.8-0.3
				c-1.2-0.4-1.5-1.2-1.5-2.1c0-1.3,0.8-2.4,3.1-2.4c0.8,0,1.5,0.2,2.1,0.3l-0.1,1.9c-0.5-0.2-1.2-0.5-1.8-0.5
				c-0.5,0-0.9,0.1-0.9,0.5c0,0.3,0.2,0.4,0.9,0.7l0.9,0.3c0.9,0.3,1.5,0.8,1.5,2.1c0,1.5-1,2.4-3.2,2.4c-0.8,0-1.9-0.2-2.3-0.3
				L1165.4-688.3z"/>
			<path class="st6" d="M1171.9-696.8h2.6v2.1h-2.6V-696.8z M1171.9-693.6h2.6v7.4h-2.6V-693.6z"/>
			<path class="st6" d="M1175.4-693.6h1.3v-1.6l2.6-0.8v2.4h1.4v1.7h-1.4v3.2c0,0.6,0.4,0.9,0.8,0.9c0.3,0,0.5,0,0.6-0.1l0.1,1.7
				c-0.3,0.1-1,0.2-1.7,0.2c-1.4,0-2.4-0.8-2.4-2.2v-3.7h-1.3V-693.6z"/>
			<path class="st6" d="M1188.1-687.8c0,0.6,0,1.2,0.1,1.6h-2.3c0-0.3-0.1-0.7-0.1-1c-0.7,0.8-1.3,1.2-2.2,1.2
				c-1.3,0-2.3-0.9-2.3-2.4c0-1.7,1.2-2.5,3.8-2.5h0.7v-0.2c0-0.5-0.4-1-1.4-1c-0.8,0-1.6,0.4-2.1,0.7l-0.1-1.8
				c0.6-0.2,1.5-0.5,2.8-0.5c2.6,0,3.1,1.2,3.1,2.8V-687.8z M1185.9-689.7h-0.3c-1.1,0-1.9,0.4-1.9,1.2c0,0.7,0.4,0.9,0.9,0.9
				c1.2,0,1.3-1.2,1.3-1.9V-689.7z M1186.8-696.7l-1.4,2.1h-1.5l0.7-2.1H1186.8z"/>
			<path class="st6" d="M1189.5-691.4c0-1.1,0-1.8-0.1-2.2h2.4c0,0.3,0.1,0.8,0.1,1.2h0c0.2-0.6,0.7-1.4,1.9-1.4c0.2,0,0.3,0,0.4,0
				v2.2c-0.1,0-0.5-0.1-0.8-0.1c-0.8,0-1.4,0.7-1.4,1.7v3.7h-2.6V-691.4z"/>
			<path class="st6" d="M1195.3-696.8h2.6v2.1h-2.6V-696.8z M1195.3-693.6h2.6v7.4h-2.6V-693.6z"/>
			<path class="st6" d="M1202.8-693.7c2.7,0,3.7,1.9,3.7,3.9c0,2-1,3.9-3.7,3.9c-2.7,0-3.7-1.9-3.7-3.9
				C1199.2-691.9,1200.1-693.7,1202.8-693.7 M1202.8-687.7c0.9,0,1-1.1,1-2.1c0-1.1-0.1-2.2-1-2.2c-0.9,0-1,1.1-1,2.2
				C1201.8-688.8,1202-687.7,1202.8-687.7"/>
		</g>
	</g>
</g>
</svg>
